# xmcd CD database file
# Copyright (C) 1993-1996 Ti Kan
#
# Track frame offsets:
#  150
#  18726
#  35307
#  50414
#  64157
#  78973
#  99471
#  119041
#  136224
#  157786
#  169490
#  185013
#
# Disc length: 2657 seconds
#
# Revision: 1
# Processed by: cddbd v1.5.2PL0 Copyright (c) Steve Scherf et al.
# Submitted via: Advanced CD Ripper Pro 2.0
#
DISCID=a00a5f0c
DTITLE=Unknown Artist - Unknown Album
DYEAR=2003
DGENRE=
TTITLE0=Soledad de Tres
TTITLE1=Mentiría
TTITLE2=No Juegues con mi Soledad
TTITLE3=Porque te quiero tanto me voy
TTITLE4=Bandolero
TTITLE5=Como Olvidarme de ti
TTITLE6=Ya no queda duda
TTITLE7=Eso es imposible
TTITLE8=Tanto para decirte
TTITLE9=Recordando mi puerto
TTITLE10=Madrigal
TTITLE11=Quiero
EXTD=
EXTT0=
EXTT1=
EXTT2=
EXTT3=
EXTT4=
EXTT5=
EXTT6=
EXTT7=
EXTT8=
EXTT9=
EXTT10=
EXTT11=
PLAYORDER=
